<?xml version="1.0" standalone="no"?>
<!DOCTYPE svg PUBLIC "-//W3C//DTD SVG 20010904//EN"
 "http://www.w3.org/TR/2001/REC-SVG-20010904/DTD/svg10.dtd">
<svg version="1.0" xmlns="http://www.w3.org/2000/svg"
 width="1062.000000pt" height="1062.000000pt" viewBox="0 0 1062.000000 1062.000000"
 preserveAspectRatio="xMidYMid meet">
<metadata>
Created by potrace 1.11, written by Peter Selinger 2001-2013
</metadata>
<g transform="translate(0.000000,1062.000000) scale(0.100000,-0.100000)"
fill="#000000" stroke="none">
<path d="M4940 10385 c-135 -7 -267 -18 -295 -23 -27 -6 -95 -18 -150 -26
-248 -38 -355 -57 -401 -70 -49 -15 -219 -60 -369 -98 -44 -11 -138 -43 -210
-70 -71 -28 -188 -72 -260 -100 -178 -68 -599 -279 -764 -384 -309 -195 -385
-248 -561 -394 -10 -8 -65 -52 -122 -97 -132 -105 -473 -450 -608 -617 -58
-71 -123 -150 -144 -175 -22 -25 -110 -153 -195 -283 -172 -262 -348 -586
-429 -788 -27 -69 -71 -179 -97 -244 -26 -66 -53 -140 -60 -165 -7 -25 -38
-135 -69 -244 -31 -109 -60 -223 -66 -255 -5 -31 -16 -95 -24 -142 -9 -47 -22
-123 -30 -170 -8 -47 -17 -96 -20 -110 -3 -14 -13 -138 -21 -277 -23 -386 -11
-694 40 -1053 27 -191 33 -225 44 -265 6 -22 22 -89 36 -150 40 -174 56 -235
81 -310 36 -111 130 -375 152 -430 52 -127 206 -442 272 -555 40 -69 95 -163
122 -210 28 -47 78 -123 112 -170 34 -47 97 -132 138 -190 85 -117 106 -143
228 -280 47 -52 103 -116 124 -143 108 -133 635 -586 831 -715 39 -25 133 -87
210 -137 169 -110 481 -277 665 -354 41 -18 84 -36 95 -41 119 -53 254 -104
365 -140 74 -23 176 -55 225 -72 85 -27 187 -52 403 -98 52 -11 97 -22 101
-24 8 -6 160 -28 446 -65 170 -22 558 -32 821 -21 141 6 288 15 327 20 40 6
124 17 188 25 134 17 221 33 414 74 188 41 205 45 390 103 295 91 345 109 560
202 17 7 57 24 90 37 123 49 493 244 630 334 61 39 145 93 189 120 43 28 113
77 155 110 42 33 94 74 116 90 145 111 213 168 366 311 96 89 192 181 214 206
284 318 522 625 632 816 27 48 80 139 118 202 74 127 240 470 287 595 141 374
254 780 287 1030 6 44 20 143 30 220 47 337 40 989 -13 1280 -8 44 -26 148
-41 230 -14 83 -53 247 -86 365 -34 118 -63 226 -66 240 -5 22 -129 344 -153
395 -5 11 -22 52 -37 90 -28 70 -140 289 -235 459 -53 95 -307 478 -354 535
-97 115 -159 190 -232 279 -112 134 -452 460 -626 599 -78 62 -167 133 -198
158 -31 25 -146 102 -255 171 -109 69 -210 134 -224 144 -14 10 -147 79 -295
153 -289 145 -645 286 -886 352 -397 108 -433 116 -797 170 -57 8 -108 18
-113 21 -12 8 -555 34 -668 32 -47 0 -195 -7 -330 -13z m-2094 -1861 c43 -14
105 -39 137 -56 l57 -31 73 37 c39 20 73 33 74 29 1 -5 3 -64 6 -133 l5 -126
-72 -47 c-40 -26 -76 -47 -80 -47 -5 0 -36 21 -69 46 -111 83 -218 124 -325
124 -51 0 -54 -1 -68 -35 -19 -47 -18 -66 11 -131 14 -31 25 -62 25 -68 0 -6
-41 -33 -90 -60 l-90 -49 68 -53 c37 -29 104 -73 149 -98 164 -92 286 -181
357 -260 l68 -76 73 66 74 65 11 -43 c7 -24 20 -74 30 -111 28 -101 7 -227
-52 -310 -51 -71 -204 -244 -243 -273 -171 -131 -489 -119 -714 26 -58 37 -58
36 -64 216 l-4 122 104 77 104 78 60 -59 c32 -32 59 -61 59 -65 0 -4 -41 -40
-90 -80 -102 -83 -102 -80 -5 -127 82 -41 158 -56 253 -50 120 7 186 50 221
144 l19 49 -31 78 c-27 68 -39 86 -96 136 -36 32 -115 89 -176 126 -199 123
-261 169 -337 250 -71 76 -76 85 -106 182 -29 90 -32 111 -26 170 17 172 114
295 282 359 134 51 280 53 418 8z m3599 -120 c95 -62 84 -210 -20 -250 -78
-29 -123 -7 -189 96 -34 52 -46 81 -46 108 l0 37 26 -33 26 -32 21 26 c47 60
130 82 182 48z m-2762 -416 l-47 -48 171 0 172 0 38 50 c21 27 41 49 46 50 4
0 7 -41 7 -90 0 -90 0 -91 -42 -155 l-43 -64 -122 0 -122 -1 6 -217 c3 -135
11 -233 18 -256 13 -38 12 -40 -37 -118 -43 -67 -49 -81 -38 -95 48 -57 170
-59 287 -5 72 33 74 35 110 108 41 82 53 96 53 61 0 -20 3 -18 23 14 26 43
103 104 170 136 39 18 141 56 307 115 35 13 35 13 38 77 4 112 -46 172 -155
186 -109 13 -232 -32 -333 -124 l-60 -54 0 128 0 127 39 36 c138 127 410 150
580 48 89 -53 160 -165 162 -254 l1 -38 11 35 c17 50 23 -432 7 -552 -18 -133
7 -156 101 -98 l49 30 0 -73 0 -73 -66 -39 c-71 -41 -138 -54 -209 -41 -38 8
-105 59 -105 82 0 16 -26 19 -35 4 -11 -18 -117 -67 -174 -80 -63 -15 -159 -8
-214 15 -51 21 -111 83 -137 142 l-21 48 -32 -72 c-30 -67 -36 -74 -82 -94
-229 -100 -470 -35 -551 147 -27 62 -44 208 -44 390 0 61 -3 166 -7 232 l-6
122 -93 0 c-57 0 -95 4 -100 11 -7 12 295 321 436 446 l85 75 3 -113 3 -113
-48 -48z m4141 2 l77 -50 114 0 c108 0 115 -1 115 -20 0 -13 17 -29 52 -49
l52 -30 38 34 c58 53 129 85 189 85 63 0 156 -42 220 -98 l43 -39 -63 -96
c-35 -53 -66 -95 -70 -93 -3 1 -45 26 -93 55 -81 48 -91 52 -131 46 -65 -10
-136 -54 -179 -110 -61 -80 -77 -147 -88 -384 -6 -113 -13 -257 -16 -318 l-6
-113 -108 0 -108 0 -87 96 -86 96 5 111 c4 62 11 238 16 392 14 401 22 535 30
535 4 0 42 -22 84 -50z m-1582 -19 l17 -31 110 0 c60 0 112 -3 114 -7 2 -5 -2
-312 -9 -683 -13 -697 -15 -724 -57 -821 -21 -48 -96 -129 -145 -156 l-39 -22
-82 83 -82 82 50 32 c27 18 59 49 71 70 l22 37 -26 91 c-18 66 -23 99 -17 121
5 16 11 193 15 393 3 201 9 479 12 619 7 266 6 264 46 192z m-264 -47 c39 -20
84 -51 102 -69 l31 -32 -58 -96 c-32 -53 -61 -96 -64 -97 -3 0 -24 14 -45 31
-93 74 -181 91 -262 50 -54 -27 -117 -101 -144 -170 -21 -54 -23 -71 -26 -393
l-3 -338 -115 0 -114 0 0 565 0 565 115 0 115 0 0 -127 0 -128 40 62 c22 34
63 84 91 113 110 110 211 129 337 64z m1311 12 c131 -49 210 -153 225 -296 3
-36 2 -198 -3 -360 -8 -218 -7 -298 1 -308 15 -17 60 -9 98 18 47 34 53 28 45
-47 -8 -74 -10 -76 -94 -119 -103 -53 -225 -39 -273 29 -12 18 -22 33 -24 35
-1 2 -31 -13 -68 -33 -114 -63 -214 -79 -312 -50 -85 25 -126 70 -202 222 -62
124 -67 140 -66 197 0 34 5 69 10 79 8 14 16 7 48 -48 21 -36 42 -65 47 -65 4
0 13 9 19 21 15 27 83 88 130 116 45 27 161 74 294 120 54 18 103 36 108 39 5
3 -17 32 -49 65 -56 58 -58 62 -63 122 l-5 62 -43 3 c-101 7 -217 -39 -313
-126 -33 -31 -64 -51 -67 -46 -103 149 -100 136 -86 286 l7 66 44 -54 44 -54
47 41 c51 46 100 71 183 94 70 19 255 14 318 -9z m-1808 -1896 c402 -1013 474
-1189 477 -1171 3 17 16 19 190 25 196 8 1606 36 1608 33 26 -40 214 -411 212
-417 -3 -9 -385 -223 -1260 -708 -239 -132 -338 -192 -338 -204 0 -14 35 -155
80 -318 26 -95 87 -321 150 -560 39 -146 77 -287 84 -315 31 -109 165 -623
176 -673 7 -29 10 -55 8 -57 -4 -4 -129 94 -677 528 -113 89 -284 225 -382
302 -97 77 -249 198 -338 268 -113 90 -165 126 -174 120 -7 -6 -55 -44 -107
-85 -52 -41 -369 -290 -705 -553 -335 -263 -640 -502 -677 -532 -38 -30 -68
-49 -68 -44 0 13 86 352 100 395 8 26 66 237 196 721 13 50 35 131 49 180 14
50 39 142 55 205 17 63 50 185 74 270 32 115 41 158 32 167 -6 6 -101 62 -211
124 -227 128 -368 207 -962 543 -284 160 -420 243 -414 250 4 6 43 79 86 161
43 83 90 172 104 199 l26 49 280 -7 c154 -3 523 -13 820 -21 297 -8 575 -15
619 -15 l79 0 -7 -32 c-3 -17 -4 -29 -1 -27 2 3 48 111 100 240 53 129 100
243 105 254 5 11 34 83 65 160 30 77 60 149 65 160 5 11 50 121 100 245 50
124 95 234 100 245 5 11 27 65 49 120 53 135 63 156 74 152 5 -1 76 -171 158
-377z"/>
<path d="M4595 7321 c-131 -53 -178 -83 -191 -123 -7 -18 -20 -56 -30 -85 -21
-63 -9 -102 42 -134 66 -40 168 -24 243 39 l32 27 -3 156 -3 156 -90 -36z"/>
<path d="M7080 7275 c-78 -41 -135 -101 -143 -149 -6 -38 6 -91 26 -117 57
-73 198 -67 284 13 l22 20 -59 77 c-54 70 -59 81 -62 133 l-3 57 -65 -34z"/>
</g>
</svg>
